<?xml version="1.0" encoding="UTF-8" standalone="no"?>
<!-- Created with Inkscape (http://www.inkscape.org/) -->

<svg
   xmlns:dc="http://purl.org/dc/elements/1.1/"
   xmlns:cc="http://creativecommons.org/ns#"
   xmlns:rdf="http://www.w3.org/1999/02/22-rdf-syntax-ns#"
   xmlns:svg="http://www.w3.org/2000/svg"
   xmlns="http://www.w3.org/2000/svg"
   xmlns:sodipodi="http://sodipodi.sourceforge.net/DTD/sodipodi-0.dtd"
   xmlns:inkscape="http://www.inkscape.org/namespaces/inkscape"
   version="1.1"
   id="svg3783"
   width="533.44"
   height="194.88"
   viewBox="0 0 533.44 194.88"
   sodipodi:docname="logo.png.svg"
   inkscape:version="0.92.5 (2060ec1f9f, 2020-04-08)">
  <metadata
     id="metadata3789">
    <rdf:RDF>
      <cc:Work
         rdf:about="">
        <dc:format>image/svg+xml</dc:format>
        <dc:type
           rdf:resource="http://purl.org/dc/dcmitype/StillImage" />
        <dc:title></dc:title>
      </cc:Work>
    </rdf:RDF>
  </metadata>
  <defs
     id="defs3787" />
  <sodipodi:namedview
     pagecolor="#ffffff"
     bordercolor="#666666"
     borderopacity="1"
     objecttolerance="10"
     gridtolerance="10"
     guidetolerance="10"
     inkscape:pageopacity="0"
     inkscape:pageshadow="2"
     inkscape:window-width="1366"
     inkscape:window-height="654"
     id="namedview3785"
     showgrid="false"
     inkscape:zoom="1.5707887"
     inkscape:cx="226.27441"
     inkscape:cy="102.82913"
     inkscape:window-x="0"
     inkscape:window-y="27"
     inkscape:window-maximized="1"
     inkscape:current-layer="svg3783" />
  <path
     style="fill:#000000;stroke-width:0.14260922"
     d="m 108.66103,136.38505 1.11217,-1.33734 22.44231,-12.29762 c 12.34326,-6.76369 22.47377,-12.36946 22.51223,-12.45726 0.12889,-0.29419 -12.69425,-49.312134 -12.8832,-49.247567 -0.096,0.03282 -4.75608,2.577565 -10.35571,5.655002 -8.03463,4.415672 -10.21943,5.560196 -10.36287,5.428682 -0.1,-0.09165 -3.04496,-3.70949 -6.54443,-8.039638 -3.49947,-4.33014 -6.41958,-7.890552 -6.48914,-7.912018 -0.0695,-0.02147 -3.06629,3.627358 -6.65941,8.108507 -3.59311,4.481144 -6.555691,8.147539 -6.583506,8.147539 -0.02783,0 -4.719147,-2.639122 -10.425181,-5.864722 C 78.71826,63.343016 74.02961,60.723736 74.00507,60.747988 c -0.08032,0.07938 -13.075593,49.028172 -13.075593,49.251342 0,0.1428 7.629243,4.48131 22.242774,12.64873 l 22.242779,12.43139 0.87096,1.05891 c 0.47903,0.58241 0.95915,1.17707 1.06692,1.32148 0.18148,0.24315 0.27817,0.1637 1.30812,-1.07479 z m 2.56458,-32.37283 0.10118,-18.820951 4.00458,-2.199189 c 2.20252,-1.209547 4.04734,-2.157256 4.0996,-2.10602 0.0522,0.05124 3.0949,3.804446 6.76145,8.340454 l 6.66643,8.247293 -9.84656,11.603403 c -10.89851,12.84303 -11.77109,13.85993 -11.84011,13.79846 -0.0262,-0.0234 -0.002,-8.51194 0.0534,-18.86345 z m -17.56682,5.84903 -10.079368,-12.434357 0.387494,-0.485427 c 8.927625,-11.183819 12.73001,-15.873751 12.846352,-15.844905 0.07963,0.01978 1.760199,0.940132 3.734612,2.045285 l 3.58984,2.009386 0.006,18.769248 c 0.005,15.82204 -0.0267,18.7383 -0.19979,18.57218 -0.1129,-0.10839 -4.741007,-5.79252 -10.284662,-12.63141 z m -12.306209,4.35185 c -6.761475,-3.7708 -12.327643,-6.93101 -12.369265,-7.02269 -0.102859,-0.22653 9.515439,-36.372047 9.678558,-36.372047 0.146671,0 11.545147,6.407615 11.870381,6.672884 0.176562,0.14401 -1.06635,1.765134 -7.680292,10.017359 -4.353161,5.431448 -7.856092,9.926441 -7.81321,10.02597 0.05748,0.133349 18.159115,22.531694 19.193486,23.749334 0.144111,0.16965 0.112906,0.1685 -0.208278,-0.008 -0.207787,-0.11396 -5.909905,-3.29238 -12.67138,-7.06318 z m 40.325669,6.88892 c 0,-0.0273 4.4884,-5.33557 9.97422,-11.79616 l 9.97421,-11.746522 -0.3499,-0.417067 c -2.82466,-3.366839 -15.81944,-19.622239 -15.75756,-19.711412 0.13302,-0.191678 11.72519,-6.52174 11.80805,-6.447944 0.12454,0.110904 9.4493,36.081405 9.40348,36.274125 -0.0235,0.0988 -5.65293,3.26072 -12.50983,7.02638 -13.32007,7.31509 -12.54267,6.89246 -12.54267,6.8186 z M 104.4667,77.865784 c -1.79559,-1.009212 -3.3252,-1.88369 -3.39914,-1.94329 -0.1381,-0.111332 6.78737,-8.872393 7.01348,-8.872393 0.15539,0 6.92954,8.360078 6.92472,8.545885 -0.003,0.103959 -6.95275,4.048066 -7.2145,4.094179 -0.0329,0.0061 -1.52896,-0.815169 -3.32456,-1.824381 z"
     id="path3795"
     inkscape:connector-curvature="0" />
</svg>
